<svg width="22" height="22" viewBox="0 0 22 22" fill="none" xmlns="http://www.w3.org/2000/svg">
<path d="M20.8566 2.21763H16.3566V0.503348C16.3566 0.385491 16.2602 0.289062 16.1423 0.289062H14.6423C14.5245 0.289062 14.428 0.385491 14.428 0.503348V2.21763H7.57086V0.503348C7.57086 0.385491 7.47446 0.289062 7.35661 0.289062H5.85661C5.73871 0.289062 5.64231 0.385491 5.64231 0.503348V2.21763H1.1423C0.668192 2.21763 0.285156 2.60067 0.285156 3.07478V20.8605C0.285156 21.3346 0.668192 21.7176 1.1423 21.7176H20.8566C21.3307 21.7176 21.7137 21.3346 21.7137 20.8605V3.07478C21.7137 2.60067 21.3307 2.21763 20.8566 2.21763ZM19.7852 19.7891H2.21373V9.61051H19.7852V19.7891ZM2.21373 7.78906V4.14621H5.64231V5.43191C5.64231 5.54976 5.73871 5.64621 5.85661 5.64621H7.35661C7.47446 5.64621 7.57086 5.54976 7.57086 5.43191V4.14621H14.428V5.43191C14.428 5.54976 14.5245 5.64621 14.6423 5.64621H16.1423C16.2602 5.64621 16.3566 5.54976 16.3566 5.43191V4.14621H19.7852V7.78906H2.21373Z" fill="#52C41A"/>
</svg>
